<svg xmlns="http://www.w3.org/2000/svg" width="1400" height="900" viewBox="0 0 1400 900" role="img" aria-label="Pandit Ji Collection Store preview">
  <defs>
    <linearGradient id="bg" x1="0" y1="0" x2="1" y2="1">
      <stop offset="0" stop-color="#0b1b40"/>
      <stop offset="0.55" stop-color="#173a86"/>
      <stop offset="1" stop-color="#0e223f"/>
    </linearGradient>
    <linearGradient id="card" x1="0" y1="0" x2="1" y2="1">
      <stop offset="0" stop-color="#ffffff" stop-opacity="0.16"/>
      <stop offset="1" stop-color="#ffffff" stop-opacity="0.05"/>
    </linearGradient>
  </defs>
  <rect width="1400" height="900" fill="url(#bg)"/>
  <circle cx="1180" cy="130" r="180" fill="#58f3c3" fill-opacity="0.16"/>
  <circle cx="220" cy="760" r="220" fill="#4fc3ff" fill-opacity="0.14"/>
  <rect x="120" y="120" width="1160" height="660" rx="24" fill="url(#card)" stroke="#9cc9ff" stroke-opacity="0.24"/>
  <rect x="170" y="180" width="460" height="42" rx="10" fill="#4fc3ff" fill-opacity="0.24"/>
  <rect x="170" y="250" width="380" height="20" rx="8" fill="#e7eeff" fill-opacity="0.56"/>
  <rect x="170" y="288" width="320" height="20" rx="8" fill="#e7eeff" fill-opacity="0.4"/>
  <rect x="170" y="348" width="210" height="56" rx="10" fill="#58f3c3" fill-opacity="0.3"/>
  <rect x="398" y="348" width="180" height="56" rx="10" fill="#4fc3ff" fill-opacity="0.26"/>
  <rect x="690" y="180" width="540" height="520" rx="18" fill="#ffffff" fill-opacity="0.1"/>
  <rect x="730" y="230" width="220" height="220" rx="14" fill="#ffffff" fill-opacity="0.16"/>
  <rect x="970" y="230" width="220" height="220" rx="14" fill="#ffffff" fill-opacity="0.16"/>
  <rect x="730" y="470" width="220" height="180" rx="14" fill="#ffffff" fill-opacity="0.16"/>
  <rect x="970" y="470" width="220" height="180" rx="14" fill="#ffffff" fill-opacity="0.16"/>
  <text x="170" y="520" fill="#ffffff" font-family="Syne, sans-serif" font-size="64" font-weight="700">Pandit Ji Collection Store</text>
  <text x="170" y="570" fill="#d2e6ff" font-family="Space Mono, monospace" font-size="22" letter-spacing="1.6">E-COMMERCE DASHBOARD PREVIEW</text>
</svg>
